<svg width="535" height="392" viewBox="0 0 535 392" fill="none" xmlns="http://www.w3.org/2000/svg">
<circle cx="259" cy="196" r="196" fill="#7E7E7E"/>
<path d="M502.278 118.054C506.553 130.845 504.137 145.253 496.005 160.397C487.873 175.542 474.045 191.379 455.588 206.977C418.675 238.173 363.326 268.347 298.288 290.083C233.249 311.818 170.88 320.986 122.628 318.253C98.5005 316.886 77.9296 312.545 62.3254 305.333C46.7225 298.121 36.1288 288.061 31.854 275.27C27.5792 262.479 29.9956 248.07 38.1273 232.927C46.2596 217.781 60.0871 201.945 78.5446 186.346C115.457 155.151 170.807 124.977 235.845 103.241C300.883 81.5048 363.253 72.3373 411.505 75.0706C435.632 76.4374 456.203 80.7783 471.807 87.9906C487.41 95.2024 498.004 105.263 502.278 118.054Z" stroke="#AEAEAE"/>
<path d="M515.36 188.967C515.782 202.447 509.331 215.555 497.194 227.727C485.057 239.9 467.265 251.1 445.106 260.744C400.792 280.029 339.11 293.043 270.569 295.193C202.029 297.343 139.653 288.22 94.2167 271.749C71.4972 263.513 53.0384 253.45 40.1616 242.061C27.2858 230.674 20.0261 217.996 19.6033 204.516C19.1805 191.036 25.6314 177.928 37.7683 165.756C49.9062 153.583 67.698 142.383 89.8567 132.739C134.171 113.454 195.853 100.44 264.394 98.29C332.934 96.1402 395.31 105.264 440.746 121.734C463.466 129.97 481.924 140.033 494.801 151.422C507.677 162.809 514.937 175.487 515.36 188.967Z" stroke="#AEAEAE"/>
</svg>
